<?xml version="1.0" encoding="utf-8"?>
<!-- Generator: Adobe Illustrator 21.1.0, SVG Export Plug-In . SVG Version: 6.00 Build 0)  -->
<svg version="1.1" id="Layer_1" xmlns="http://www.w3.org/2000/svg" xmlns:xlink="http://www.w3.org/1999/xlink" x="0px" y="0px"
	 viewBox="0 0 40 21.1" style="enable-background:new 0 0 40 21.1;" xml:space="preserve">
<style type="text/css">
	.st0{fill:#35BCBF;}
</style>
<g>
	<path class="st0" d="M20,15.9c1.2-1.1,2.4-2.2,3.6-3.3C27.8,8.6,32,4.7,36.2,0.7c0.6-0.6,1.4-0.9,2.2-0.6C39.3,0.4,39.8,1,40,1.9
		c0.1,0.8-0.1,1.4-0.7,2c-2,1.9-4,3.7-5.9,5.6c-3.8,3.6-7.7,7.2-11.5,10.8c-0.3,0.3-0.6,0.5-1,0.7c-0.9,0.4-1.6,0.2-2.3-0.5
		c-5.3-5-10.6-9.9-15.9-14.9C2,4.9,1.3,4.4,0.7,3.8c-0.9-0.9-1-2.2-0.2-3.1c0.8-0.9,2.2-0.9,3.1,0c3.9,3.6,7.8,7.3,11.7,11
		C16.9,13,18.4,14.4,20,15.9z"/>
</g>
</svg>
