<svg id="Layer_1" data-name="Layer 1" xmlns="http://www.w3.org/2000/svg" viewBox="0 0 536.09 272.05">
  <defs>
    <style>.cls-1{fill:#73689a;}.cls-2,.cls-3{fill:none;stroke:#73689a;stroke-linecap:round;stroke-miterlimit:10;}.cls-2{stroke-width:23.6px;}.cls-3{stroke-width:22.85px;}</style>
  </defs>
  <title>BIKE</title>
  <path class="cls-1" d="M252.47,190.51,164.8,134.42l2.36-27.14q2.42-27.84,4.84-55.67c.58-6.58,2.87-9.22,9.28-10.77q14.77-3.57,29.54-7.12c5.86-1.4,10.89,1.32,12.58,6.76A9.58,9.58,0,0,1,216.7,53c-7.14,2.16-14.45,3.81-21.74,5.42-2.39.53-3.15,1.58-3.3,3.9-.37,5.67-1,11.33-1.51,17-.08.95-.06,1.9-.09,3.16l3.14-.76q58.22-14,116.45-28c2.23-.53,3.22-1.28,3.37-3.77.38-6.63,1.15-13.25,1.8-20.32l-11.45,2.76c-4.21,1-8.38,2.18-12.63,3-7.69,1.48-13.8-3.71-13-10.88a10.1,10.1,0,0,1,7.38-8.64q30.39-7.39,60.8-14.66a9.81,9.81,0,0,1,11.6,6.69c1.68,5.24-.42,10.51-5.51,12.37a113,113,0,0,1-13.65,3.66c-2,.46-2.85,1.28-3,3.45-.92,11.43-2.05,22.84-3,34.27-.09,1,.13,2.53.81,3.08,13.47,10.83,27,21.55,40.74,32.41,26.65-25.19,57.78-34.51,93.47-25.29,25.68,6.64,45.21,22.08,58.09,45.26,26,46.86,8.67,103-35.17,128.66-51.17,30-118.87,5.73-138.27-50.28l-3.33.8c-12.52,3-25.06,6-37.56,9.09a8.17,8.17,0,0,1-7.66-1.83c-7.27-6-14.45-12.1-21.81-18q-46-36.66-92.06-73.21c-.6-.48-1.23-.93-2.32-1.75L184.73,137M90.81,230.34,391,110.07c.34.32.66.68,1,1l27.24,21.61q14.31,11.36,28.61,22.73a10.69,10.69,0,0,1,4.22,10.92c-.8,4.35-4,6.3-7.85,7.47-.94.29-1.9.49-2.86.72L376,190.25l-3.62.87c8.48,24.11,35.36,48.78,71.83,47.8,35.56-1,65.6-26.93,72.4-62.13,6.35-32.9-12.14-67.4-43.24-81.34C442,81.36,406.7,92.69,391,110.07ZM206.68,99.71l94.75,75.55L311,74.56ZM330,88l-8.52,94.25,26-6.27c-2.57-22.71,2-43.69,14-63.16Zm47.12,37.71c-7.84,14.42-11.59,29.28-9.79,45.42l52-12.54Z" transform="translate(-1.49 -0.91)"/>
  <path class="cls-2" d="M179.73,101.35c-1.13,58.64-36.64,105.42-79.38,104.6" transform="translate(-1.49 -0.91)"/>
  <ellipse class="cls-3" cx="112.76" cy="212.09" rx="100.42" ry="48.25" transform="translate(-26.5 14.42) rotate(-7)"/>
</svg>