<svg id="Layer_1" data-name="Layer 1" xmlns="http://www.w3.org/2000/svg" viewBox="0 0 3029.17 2983.33"><defs><style>.cls-1{fill:#3bb8bc;}.cls-2{fill:#fff;}</style></defs><title>LITEM_ICON_1024_1024</title><rect class="cls-1" width="3029.17" height="2983.33"/><path class="cls-2" d="M1451.34,183.73c-699,0-1267.63,568.65-1267.63,1267.61S752.38,2718.95,1451.34,2718.95,2719,2150.3,2719,1451.34,2150.3,183.73,1451.34,183.73ZM392.89,1607.87c-7.55-51.24-12.76-103.23-12.76-156.53a1076.82,1076.82,0,0,1,6.24-114c68.86-20.86,247.94-70.55,492.26-106.63C708.56,1338.65,521.6,1472.47,392.89,1607.87Zm40.53-488.49c24.79-75.82,58.27-147.54,98.49-214.89C681.6,866,1462,689.13,2375.53,912.32a1063.63,1063.63,0,0,1,107.81,255.87C1633.27,857.87,767.34,1030.42,433.42,1119.39ZM2182.87,671c-617.44-111.92-1147-61.51-1453.11-9.06,190.62-174.39,443.48-281.82,721.58-281.82C1734.27,380.11,1991.19,491.18,2182.87,671ZM1451.34,2522.57c-452.64,0-839.71-282.64-996.31-680.35,120.16-200.85,582.46-493.23,884.34-651.45,360.41-9.05,778.32,34.46,1180.23,202.27,1.05,19.41,3,38.62,3,58.29C2522.55,2042,2042,2522.57,1451.34,2522.57Z" transform="translate(71.67 35.83)"/></svg>