<svg id="Layer_1" data-name="Layer 1" xmlns="http://www.w3.org/2000/svg" viewBox="0 0 1331.69 297"><defs><style>.cls-1{fill:#41506b;}.cls-2{fill:#35bcbf;}</style></defs><title>LITEM_LOGO_FINAL</title><path class="cls-1" d="M506,228.56V276H335V51.11A12.11,12.11,0,0,1,347.11,39H392V219H496.44A9.56,9.56,0,0,1,506,228.56Z" transform="translate(-0.31 0)"/><path class="cls-2" d="M561,65.84a33.07,33.07,0,1,1,28.26-28.28A33.07,33.07,0,0,1,561,65.84Z" transform="translate(-0.31 0)"/><path class="cls-1" d="M540.64,89H585V276H528V101.64A12.64,12.64,0,0,1,540.64,89Z" transform="translate(-0.31 0)"/><path class="cls-1" d="M695,131v60.56c0,31.64,11.15,35.54,27.31,36.25a8.07,8.07,0,0,1,7.69,8.07V279c-70.32,12.39-94-23.68-94-68.86V131H608V88h28V29.72A11.72,11.72,0,0,1,647.72,18H695V88h42.57A8.43,8.43,0,0,1,746,96.43V131Z" transform="translate(-0.31 0)"/><path class="cls-1" d="M1332,182.91v83.85a9.24,9.24,0,0,1-9.24,9.24H1276V182.86c0-30-10.64-45.66-44-45.66-24.23,0-43,19.73-43,44.56V276h-57V182.91c0-29.93-10.57-45.63-43.75-45.63-24.06,0-42.65,19.71-42.65,44.54-.36,23.36,0,94.18,0,94.18H988V101.16A13.16,13.16,0,0,1,1001.16,88H1045v15c.36-.36,19.72-21.17,50.39-21.17,41.63,0,65.36,16.43,78.51,38.69a90.13,90.13,0,0,1,19.35-22.27c18.26-15,41.63-18.62,66.46-15C1318.86,92.75,1332,143.12,1332,182.91Z" transform="translate(-0.31 0)"/><path class="cls-1" d="M962,239.16c-17.4,25.9-53.41,42.49-89.83,42.49-61.51,0-110.88-48.16-110.88-106.43,0-59.08,47.34-106.83,106-106.83A108.23,108.23,0,0,1,964,127.69a15.81,15.81,0,0,1-4.83,20l-104,74.52c5.26,2,10.93,2.43,17,2.43,13.67,0,27.34-3.75,37.09-12.42a12.85,12.85,0,0,1,16.46-1ZM821.14,188.57l74.46-53a46.12,46.12,0,0,0-28.33-9.71c-26.3,0-47.75,20.64-47.75,49.37A46.5,46.5,0,0,0,821.14,188.57Z" transform="translate(-0.31 0)"/><path class="cls-2" d="M148.65.31C66.86.31.31,66.86.31,148.66S66.86,297,148.65,297,297,230.45,297,148.66,230.45.31,148.65.31ZM24.79,167A116.73,116.73,0,0,1,24,135.32a414.81,414.81,0,0,1,57.61-12.48C61.73,135.47,39.85,151.13,24.79,167Zm4.74-57.17A124.56,124.56,0,0,1,41.06,84.66c17.52-4.5,108.85-25.2,215.75.92a124.47,124.47,0,0,1,12.62,29.94C169.94,79.2,68.61,99.4,29.53,109.81ZM234.26,57.34A497.7,497.7,0,0,0,64.21,56.27a124.63,124.63,0,0,1,170.05,1.06ZM148.65,274c-53,0-98.27-33.08-116.59-79.62,14.06-23.5,68.16-57.72,103.49-76.24,42.18-1.06,91.08,4,138.12,23.67.12,2.27.35,4.52.35,6.82A125.5,125.5,0,0,1,148.65,274Z" transform="translate(-0.31 0)"/></svg>