<?xml version="1.0" encoding="utf-8"?>
<!-- Generator: Adobe Illustrator 21.1.0, SVG Export Plug-In . SVG Version: 6.00 Build 0)  -->
<svg version="1.1" id="Layer_1" xmlns="http://www.w3.org/2000/svg" xmlns:xlink="http://www.w3.org/1999/xlink" x="0px" y="0px"
	 viewBox="0 0 1081 226.3" style="enable-background:new 0 0 1081 226.3;" xml:space="preserve">
<style type="text/css">
	.st0{fill:#FFFFFF;}
	.st1{fill:#35BCBF;}
</style>
<g>
	<path class="st0" d="M56.6,172.7h77.2c5.1,0,9.1,4.1,9.1,9.1v44.5H0v-56.8V15.1C0,6.8,6.8,0,15.1,0h41.4V172.7z"/>
	<path class="st0" d="M268,0v207.9c0,10.2-8.3,18.4-18.4,18.4h-38.1V12.5C211.4,5.6,217,0,224,0H268z"/>
	<path class="st1" d="M580.7,15.6v44h-95.3v166.8h-62.5V59.6h-95.3V13.6c0-7.5,6.1-13.6,13.6-13.6h223.9C573.7,0,580.7,7,580.7,15.6
		z"/>
	<path class="st0" d="M792.1,175.7v41.9c0,4.8-3.9,8.8-8.8,8.8h-87.8h-58.3V12.6c0-6.9,5.6-12.6,12.6-12.6h47h92.3v47.6h-92.3v41.7
		h77.4V137h-77.4v38.7H792.1z"/>
	<path class="st0" d="M1023.3,0h57.7v214.7c0,6.4-5.2,11.7-11.7,11.7h-47.9V225v-13.9V97.7l-28.1,51.6l-1.3,2.6h-57.4l-1.6-2.6
		l-3.8-7.4l-23.9-44.2v113.4V225v1.3H899h-50.3V12c0-6.6,5.4-12,12-12h46L965,96.4L1023.3,0z"/>
	<path class="st1" d="M345.5,148.9h-29.6c-4.2,0-6.9-5.7-4.8-10.3l14.8-32l14.8-32c1.9-4.1,7.7-4.1,9.5,0l14.8,32l14.8,32
		c2.1,4.6-0.5,10.3-4.8,10.3H345.5z"/>
	<path class="st1" d="M563.6,151.9H534c-4.2,0-6.9-5.7-4.8-10.3l14.8-32l14.8-32c1.9-4.1,7.7-4.1,9.5,0l14.8,32l14.8,32
		c2.1,4.6-0.5,10.3-4.8,10.3L563.6,151.9z"/>
</g>
</svg>
