<svg version="1" xmlns="http://www.w3.org/2000/svg" width="1429.333" height="1429.333" viewBox="0 0 1072.000000 1072.000000"><path d="M687.8 264.5c-.2.3-1.3.6-2.4.8-2.5.5-7 1.6-11.4 2.7-5.2 1.4-36.1 8.8-39 9.4-1.4.3-6.1 1.5-10.5 2.6s-8.7 2.2-9.5 2.4c-.8.2-2.8.6-4.5 1-8.6 2.2-22.5 5.6-24.6 6-11.7 2.4-22.8 6-25.9 8.4-8.8 7.1-10.1 21-2.7 29.1 1.2 1.3 4.3 3.4 6.9 4.6 6.1 2.8 10.7 2.5 29-2.1 7.9-1.9 15.2-3.7 16.3-3.9 1.1-.2 4.9-1.1 8.4-2 6.1-1.5 9.8-1.4 8.7.3-.3.4-.8 4.2-1.1 8.3-.4 4.1-.8 9-1.1 10.9-.2 1.9-.6 6.9-.9 11-.8 10.8-.9 11.4-2.2 12.7-1.7 1.9-4.9 2.9-19 6.2-7 1.7-18.4 4.4-25.3 6.1-6.9 1.7-13.6 3.3-15 3.6-1.4.3-4.3 1-6.5 1.6-2.2.5-4.7 1.2-5.5 1.3-.8.2-7.3 1.8-14.5 3.5-7.1 1.7-13.7 3.3-14.5 3.5-.8.2-6.4 1.5-12.5 3-6 1.4-11.7 2.8-12.5 3-.8.2-3.7.9-6.5 1.5-2.7.6-5.8 1.3-6.8 1.5-1 .2-2.7.7-3.7 1-1 .3-2.7.7-3.7.9-1 .2-3.8.9-6.3 1.6-2.5.7-5.6 1.4-7 1.6-1.4.3-3.2.7-4 1-.8.3-2.6.8-3.9 1-1.3.3-5.1 1.2-8.5 2-3.4.8-7.1 1.7-8.3 2-1.2.2-9.4 2.2-18.2 4.4-8.8 2.2-16.9 4-17.9 4s-2.3.5-3 1.2c-.7.7-1.2.9-1.2.6 0-.3-4.2.5-9.2 1.8-5.1 1.3-9.7 2.4-10.1 2.4-.5 0-.6-3-.3-6.8.8-7.9 1.3-14.1 2-23.7 1-12.5 1.9-15.3 5.4-16.7 2.3-.9 7.5-2.1 18.2-4.5 1.4-.2 3-.6 3.5-.7.6-.1 1.9-.5 3-.9 1.1-.3 3.3-.8 4.9-1.1 6.6-1.2 20.3-6 23.3-8.3 10.5-8 8.5-26.2-3.7-33.2-3.4-2-13.8-2.3-19.3-.6-2.5.7-5.8 1.6-7.4 1.9-3.8.8-15.2 3.5-36.3 8.6-28.6 7-29 7.5-31.5 40.5-.2 3.3-.7 8.5-1 11.5-.3 3-.7 8.2-1 11.5-1.1 13.3-1.5 17.3-2 24-.3 3.8-.8 9-1 11.5-.2 2.5-.7 7.9-1 12-.3 4.1-.9 9.7-1.1 12.5-.3 2.7-.7 7-.9 9.5-.2 2.5-.6 8.1-1 12.5s-.9 9.3-1 11c-.5 5.9-1.5 12.7-2.6 17.3-.6 2.6-1.3 5.7-1.5 6.8-.2 1.2-1.5 5.9-2.9 10.5s-2.7 9.1-2.9 9.9c-.8 2.7-3.5 10-5 13.3-3.3 7.2-4.9 11.2-4.7 12 0 .4-1.1.5-2.6.3-3.1-.5-12.5-1.4-21.8-2.1-6.5-.5-42.1-.5-49.5 0-8 .5-20.4 1.6-23.5 2-1.6.2-4.8.6-7 .9-4.8.6-13.2 1.9-20.5 3.1-2.9.5-18.8 3.8-24 5-65 14.8-122 47-145.6 82.3C5.5 673.5.9 686.9.5 702.3c-.8 29.2 13.6 53.4 43.4 72.6 7.5 4.8 26.3 14.1 28.6 14.1.8 0 1.5.5 1.5 1 0 .6.3.9.8.8.4-.1 4.3 1 8.7 2.4 10 3.3 21.9 6.5 26.5 7.3 1.9.3 4.2.8 5 1 3.1.9 11.1 2.2 19 3 3 .4 6.1.9 6.9 1.1 7.6 2.5 75.3 2.5 88.6 0 1.1-.2 5.1-.7 8.9-1.1 7.8-.8 8.7-.9 20.6-3.1 4.7-.9 9.6-1.8 11-2 2.2-.4 6.8-1.4 13.5-2.9 16.4-3.8 45.2-12.8 51.6-16.1 1.6-.8 3.2-1.5 3.6-1.5 2.6-.4 21.4-9 29.6-13.6 3.3-1.8 6.3-3.3 6.8-3.3s.9-.5.9-1c0-.6.5-1 1-1 .9 0 13.8-8.1 16.7-10.5 1.9-1.5 3.4-2.7 8.3-6.4 8.7-6.6 21.9-20.8 28.7-30.8 5.1-7.6 11.3-21.9 12.9-29.8.9-4.9 1.1-23.7.2-28.5-3.3-18.1-16.6-37.7-34-50.3-2.3-1.7-4.5-3.4-4.8-3.7-.3-.3-2.1-1.4-4-2.4-1.9-1.1-3.7-2.2-4-2.5-.5-.6-18.1-9.3-22.5-11.2-1.1-.4-5.5-2-9.7-3.5-7.6-2.6-9.3-4.3-7-7 2.6-2.9 11.8-32.1 15.2-48.4 3.3-16.1 3.2-15.3 4.6-28 .3-3 .9-6 1.2-6.6.4-.7 8.3 5 20.8 15 11 8.9 21.3 17 22.8 18.1 1.6 1.1 4.1 3.1 5.6 4.5s4 3.4 5.6 4.5c1.5 1.1 3.2 2.4 3.8 3 .6.5 2.9 2.3 5.1 4 3.6 2.7 6.8 5.3 9.9 8 .6.5 4 3.2 7.6 6 3.6 2.7 6.7 5.2 7 5.5.4.5 9.2 7.4 19.4 15.3 1.5 1.2 3.3 2.7 4 3.2.6.6 9.9 8 20.6 16.5 10.7 8.5 19.7 15.8 19.8 16.2.2.4 1 .8 1.7.8s1.5.4 1.7.8c.5 1.3 16.7 14.2 17.8 14.2.6 0 1 .4 1 .8s4.6 4.5 10.3 8.9c5.6 4.5 11.3 9.3 12.7 10.5 1.4 1.3 3.4 3 4.6 3.8 1.2.8 4.5 3.5 7.4 6 6.6 5.6 13 10.9 16.1 13.5 4.2 3.4 10.5 4.4 17.4 2.8 3.3-.8 6.7-1.6 7.5-1.8.8-.1 3.5-.8 6-1.5s5.6-1.4 7-1.6c1.4-.3 3.2-.7 4-1 .8-.3 2.6-.8 4-1.1 4.3-.9 5.5-1.1 5.5-1.3 0-.1 1-.3 2.2-.6 1.3-.2 6.9-1.5 12.5-2.9 5.7-1.4 11.4-2.8 12.8-3.1 1.4-.3 4.3-1 6.5-1.6 12-3.1 11.3-3.3 14.5 4.8 8.8 22.9 24.1 45.9 42.8 64.1 7.6 7.4 21.3 18.7 26 21.3 1.5.8 2.9 1.8 3.2 2.1 1 1.3 9.7 6 21.5 11.8 10.9 5.4 30.2 12.6 36.5 13.6 1.4.3 5.4 1.1 9 1.9 19.4 4.3 50.3 5.2 66 2.1 1.4-.3 4.5-.7 6.9-1 2.4-.3 4.7-.7 5.1-1 .3-.2 2.2-.7 4.1-1 9.3-1.5 27.7-8.3 41.4-15.2 6.1-3.1 12-6.1 13.2-6.7 1.3-.6 2.3-1.4 2.3-1.9 0-.4.4-.7 1-.7 2.8 0 22.5-15.8 33.7-26.9 10.3-10.2 27.3-32.1 27.3-35.2 0-.5.4-.9.9-.9s1.5-1.6 2.2-3.5c.7-1.9 1.7-3.5 2.1-3.5.4 0 .8-.9.8-1.9 0-1.1.3-2.1.8-2.3.6-.3 4.1-7.5 8.7-18.3 2.4-5.6 8.1-25.2 9.1-31.5.2-1.4.6-3.4.8-4.5 1.5-6.8 2.1-16.2 2.1-32.5 0-18.2-.5-24.7-2.6-33.8-.6-2.6-1.2-5.6-1.4-6.7-1.1-8.1-8.3-28.8-14.3-41.4-5.3-11.3-17.3-30.9-21.4-35.2-.7-.8-2.6-3.2-4.3-5.4-5.4-7.2-21.8-22.9-31.7-30.3-5.3-4-10-7.2-10.4-7.2-.4 0-1.5-.6-2.3-1.4-1.6-1.4-18.4-10-25.1-12.9-10.8-4.7-33.7-11.2-46.5-13.1-2.2-.4-5.6-.9-7.5-1.2-11.2-1.7-42.2-1.2-55.3 1-30.6 5.1-63.7 20.9-89.7 42.5-7.3 6.1-11 9.3-12.6 10.8-.7.7-1.5 1.3-1.7 1.3-.4 0-7.8-5.7-19.7-15.3-.8-.7-3.5-2.8-6-4.7-2.5-1.9-5.2-4-6-4.7-.8-.7-5.5-4.4-10.5-8.3-4.9-4-10.6-8.4-12.5-10-1.9-1.6-8.7-6.9-15-12-9.9-7.9-14.6-13.1-13.5-15 .2-.5.7-4.9 2.1-21.5.8-8.9 1.2-13.3 1.8-20 .3-3.3.8-8.9 1.1-12.5 1-13.3 1.5-18.3 2.1-19.1.8-1.3 6.3-3.5 10.9-4.3 7.3-1.3 23.7-6.7 26.5-8.8 10.1-7.4 9.1-24.4-2-32.3-3.3-2.4-5.3-3-10-3.2-3.2-.1-6 0-6.2.2zM618.5 415c-.2 1-.6 5.1-1 9.2-.4 4-.9 9.1-1.1 11.3-.2 2.2-.7 6.7-.9 10-1.2 13.3-1.4 15.2-1.9 19-.3 2.2-.8 7.6-1.1 12-.3 4.4-.7 9.1-1 10.5-.2 1.4-.6 6.1-1 10.5-.3 4.4-.8 9.3-1 11-.5 3.4-1.6 15.1-2 21-.4 5.1-1.4 15.7-2 21.5-.3 2.5-.7 7.2-1 10.5-.3 3.3-.7 8-1 10.5-.3 2.5-.7 7.4-1 11-.2 3.6-.8 8.7-1.1 11.5-.6 4.5-1 9.7-1.3 16.2-.1 2.1-.3 2.1-1.8.8-1-.7-11.2-8.9-22.8-18-11.5-9.2-21.9-17.4-23-18.4-1.6-1.3-23-18.3-32.9-26.1-1.1-.8-3.6-3-5.6-4.8-2.1-1.7-4-3.2-4.3-3.2-.4 0-2.1-1.3-3.9-2.9-1.8-1.6-10.3-8.5-18.8-15.2-8.5-6.8-15.6-12.7-15.8-13.1-.2-.4-.8-.8-1.4-.8-.6 0-1.6-.6-2.2-1.3-.6-.8-11-9.2-23.1-18.8-12.1-9.6-22.1-17.7-22.3-18.1-.2-.5-.8-.8-1.3-.8s-1.7-.8-2.7-1.8c-.9-.9-3-2.7-4.6-4-3.2-2.5-3.2-2.8.4-3.6 5.3-1.1 7.2-1.5 9.3-2.2 1.2-.4 2.9-.9 3.7-1 3.4-.5 7.7-1.5 10.5-2.4 1.7-.5 5.3-1.5 8-2 2.8-.6 6.6-1.5 8.5-2 6.7-1.6 7.5-1.8 14.5-3.5 3.9-.9 7.8-1.8 8.8-2.1 2-.5 5.2-1.2 8.7-2 3.3-.7 4.1-.9 6.5-1.7 1.1-.3 3.2-.9 4.8-1.2 5.1-1 7.2-1.5 21.7-5.1 18.3-4.5 15.7-3.9 28.5-6.9 6.1-1.4 11.5-2.7 12-2.9.6-.2 2.8-.7 5-1.1 4.5-1 4.1-.9 7.5-1.8 1.4-.4 11.1-2.7 21.5-5.2 10.5-2.5 19.9-4.9 21-5.4 2.5-1.1 4.5.4 4 2.9zm42.1 26.2c1.6 1.3 3.8 3.1 4.9 4 1.1.9 6.8 5.4 12.6 10 5.9 4.6 17.7 13.8 26.3 20.6l15.6 12.3-2.5 4c-10.2 16.1-19.9 42-24 63.9-2.7 14.7-3.8 38.3-2.3 51.6.4 2.8.3 5.5 0 6.1-.4.6-4.1 1.8-8.2 2.7-10.4 2.3-11 2.4-15.5 3.6-2.2.6-4.9 1.3-6 1.5-1.1.2-2 .4-2 .5 0 .1-.9.3-2 .6-1.1.2-5.5 1.2-9.8 2.2l-7.7 1.9.5-5.6c.2-3.1.7-8.8 1-12.6.3-3.9.8-8.8 1-11 .6-4.8 1.4-13.5 2-22.5.3-3.6.7-8.5 1-11 .3-2.5.7-6.8.9-9.5.3-2.8.8-7.7 1.1-11 .3-3.3.8-8.9 1-12.5.3-3.6.7-8.5 1-11 .7-7.2 1.5-16 2-22.3.3-3.3.7-8 1-10.5.2-2.6.7-7.6 1-11.2.7-7.7 1.2-12.9 2.1-23 .4-4.1.8-9 .8-10.8.1-3.8.4-3.9 4.2-1zm238.3.2c4 .4 9.3 1.1 11.9 1.7 2.6.5 6.1 1.2 7.7 1.5 6.5 1.2 21.5 6.8 31 11.5 13 6.5 26.6 16.2 36.8 26.4 10 9.9 13.2 13.7 20.2 24.1 13.6 20.3 22.5 43.9 25.1 66.9 1.2 11.4.6 33.7-1.1 39.5-.2.8-.6 2.6-.9 4-2.2 12.4-6.7 25.3-13.3 38.5-3 6-6.1 11.7-6.9 12.6-.8.8-1.4 2-1.4 2.5 0 .6-.8 1.9-1.7 3-1 1-3.8 4.6-6.3 7.9-3.9 5.3-18.3 20.2-23.7 24.6-3.5 2.8-15.4 11-19.2 13.1-5.1 3-16 8.6-16.9 8.9-1.4.3-5.7 2-7.7 2.9-1.1.5-4.7 1.7-8 2.6-7.6 2.2-7.4 2.2-11 2.9-1.6.3-4.1.8-5.5 1.1-9.7 2.2-40.3 2.5-51.5.5-25.9-4.6-51.3-16.2-70.2-31.9-14.6-12.2-26.6-26.2-34.5-40.3-1.4-2.4-3.5-6.1-4.6-8.2-1.2-2-1.9-3.7-1.7-3.7.3 0-.4-1.8-1.5-4-2.7-5.2-2.6-5.7 1.3-6.6 1.7-.4 3.7-.9 4.2-1 .6-.2 2.4-.6 4-.9 1.7-.3 4.8-1.1 7-1.7 2.2-.5 5.1-1.2 6.5-1.4 1.4-.3 3.2-.7 4-1 .8-.3 2.5-.8 3.8-1 1.3-.3 11.4-2.7 22.5-5.4 17.2-4.2 38.4-9.3 43.7-10.5 6.3-1.5 28.3-6.7 31.5-7.6 2.2-.5 5.1-1.2 6.5-1.5 10-2 17.3-6.2 20.1-11.5 3.6-7.2 2.4-17.7-2.8-23.5-1-1.1-11-9.3-22.3-18.2-11.3-9-21.2-16.8-22-17.5-.8-.7-6.9-5.5-13.5-10.7-6.6-5.2-12.7-10-13.5-10.7-.8-.7-7.4-5.9-14.7-11.7-15.6-12.4-15-11.9-18.7-15.1-1.6-1.4-3.2-2.5-3.5-2.5-.3 0-2.5-1.8-4.9-3.9l-4.2-3.8 5.8-5.4c9.4-8.6 15.7-13 27.2-19.1 11-5.8 31.3-12.8 41.2-14.2 1.8-.3 4.4-.8 5.8-1.1 1.4-.4 6.1-.9 10.5-1.2 4.4-.3 8.1-.6 8.2-.7.4-.4 13.7.2 21.2.8zM758.1 519c3.5 2.8 7.1 5.7 7.9 6.3.8.7 6.5 5.1 12.5 9.7 6.1 4.7 11.7 9 12.5 9.7.8.7 5.1 4.1 9.6 7.5 4.4 3.5 9.8 7.6 11.9 9.3 2.1 1.6 6.4 5 9.5 7.5 3.1 2.5 7.4 5.8 9.5 7.5l3.8 2.9-2.9.8c-1.6.5-3.8 1-4.9 1.2-1.1.2-6 1.4-11 2.6-4.9 1.2-9.8 2.4-10.8 2.6-1 .2-2.7.6-3.7.9-1 .3-2.7.7-3.7.9-1 .3-4.9 1.2-8.8 2.1-3.8.9-7.7 1.8-8.5 2-.8.2-8.2 2-16.5 4-8.2 2-15.9 3.8-17 3.9-1.1.2-4 .9-6.5 1.6-7 1.9-8.8 2.1-9.6.9-.8-1.3-.8-23.1 0-29.9 1-8 4.9-25 7.3-31.4 5.2-13.9 11.5-27.6 12.8-27.6.1 0 3.1 2.3 6.6 5zm-479.4 92.3c.7.7-14.5 15.7-15.9 15.7-.4 0-1.3.6-2 1.3-7.3 7.2-31.8 18.8-42.7 20.3-6.9 1-11.6 1.4-17.6 1.8-12.4.7-19.4 4.5-23.8 13.1-3.1 6.2-2.9 15.8.6 21.8 5.2 8.9 12.5 12.4 25.2 12.2 8.1-.2 19.6-1.2 22.7-2.1 1.8-.5 4.9-1.2 8.8-2 1.4-.3 3.4-.8 4.5-1.1 1.1-.4 2.2-.7 2.5-.8 7.2-1.3 37.7-16 38.8-18.7.2-.4.8-.8 1.3-.8.6 0 1.5-.4 2.2-1 .7-.5 5-3.9 9.7-7.6 10.8-8.5 25.3-23.3 34.2-35.2 3.8-5 7.2-9.2 7.6-9.2 1.5 0 23.9 8 28.2 10 21.3 10 33.1 21.4 35.8 34.5 1.1 5.3-1 14.3-5 21.4-5.1 9-21.6 24.5-34.7 32.6-10.8 6.7-24.2 13.6-36.7 18.9-5.9 2.4-32.2 11.5-35.4 12.1-.8.2-5.1 1.2-9.5 2.3-8.1 2.1-27.2 5.9-33.4 6.7-1.8.2-5.2.7-7.5 1.1-18.8 2.9-56.9 4.5-74.1 3-12.7-1.2-17.2-1.6-19.5-2-1.4-.2-4.7-.7-7.5-1-2.7-.4-6.1-.9-7.5-1.2-1.4-.3-3.5-.8-4.8-1-18.9-3.4-42.5-12.1-55.8-20.6-6.7-4.3-15.8-13.3-18.2-18-2.3-4.5-4.1-12.1-3.6-15.3 1.7-11.7 12.6-27 26.4-37.4 1.9-1.4 3.7-2.9 4-3.2.3-.4 4.4-3.2 9.2-6.3 9.2-6 28-15.6 38.8-19.9 8.7-3.4 20.7-7.8 22.3-8.1.6-.2 3.7-1 6.8-2 3.1-.9 6.5-1.9 7.5-2.1 1.1-.2 3.9-.9 6.4-1.6 7.1-1.7 7.1-1.7 14.5-3.3 3.9-.8 8.6-1.8 10.5-2 3.8-.6 9.1-1.5 13-2.2 1.4-.2 5-.7 8-1 3-.3 6.9-.7 8.5-1 1.7-.2 8-.7 14-1 6.1-.3 11.1-.7 11.2-.8.6-.6 31.3.1 32 .7z"/></svg>